<svg xmlns="http://www.w3.org/2000/svg" width="32" height="32" viewBox="0 0 256 256"><path fill="#3178C6" d="M0 128v128h256V0H0z"/><path fill="#FFF" d="M56.612 128.85l-.081 10.483h33.32v94.68h23.568v-94.68h33.32v-10.28c0-5.69-.122-10.444-.284-10.566c-.122-.162-20.4-.244-44.983-.203l-44.74.122zm149.955-10.742c6.501 1.625 11.459 4.51 16.01 9.225c2.356 2.52 5.851 7.111 6.136 8.208c.081.325-11.053 7.802-17.798 11.988c-.244.162-1.22-.894-2.317-2.519c-3.291-4.795-6.745-6.867-12.028-7.233c-7.76-.529-12.759 3.535-12.718 10.32c0 1.991.284 3.168 1.097 4.794c1.706 3.535 4.876 5.648 14.832 9.956c18.326 7.89 26.16 13.092 31.037 20.489c5.445 8.249 6.664 21.421 2.965 31.214c-4.063 10.646-14.14 17.879-28.323 20.272c-4.388.772-14.79.65-19.504-.203c-10.28-1.828-20.03-6.908-26.043-13.581c-2.357-2.6-6.95-9.387-6.665-9.875c.122-.163 1.178-.813 2.356-1.504c1.179-.69 7.964-4.388 7.964-4.388c.488-.122.853.041 1.097.366c2.926 4.55 5.689 7.354 9.711 9.224c8.168 4.307 19.383 3.699 24.91-1.259c2.357-2.153 3.332-4.388 3.332-7.679c0-2.966-.366-4.266-1.91-6.502c-1.99-2.844-6.054-5.242-17.595-10.24c-13.215-5.689-18.895-9.224-24.097-14.832c-3.006-3.25-5.851-8.452-7.029-12.8c-.975-3.617-1.219-12.678-.447-16.335c2.722-12.759 12.352-21.658 26.247-24.298c4.51-.853 14.994-.528 19.423.569z"/></svg>
